HIERARCHY
ROOT hip
{
  OFFSET 0 0 0
  CHANNELS 6 Xposition Yposition Zposition Zrotation Yrotation Xrotation
  JOINT abdomen
  {
    OFFSET 0 20.6881 -0.73152
    CHANNELS 3 Zrotation Xrotation Yrotation
    JOINT chest
    {
      OFFSET 0 11.7043 -0.48768
      CHANNELS 3 Zrotation Xrotation Yrotation
      JOINT neck
      {
        OFFSET 0 22.1894 -2.19456
        CHANNELS 3 Zrotation Xrotation Yrotation
        JOINT head
        {
          OFFSET -0.24384 7.07133 1.2192
          CHANNELS 3 Zrotation Xrotation Yrotation
          JOINT leftEye
          {
            OFFSET 4.14528 8.04674 8.04672
            CHANNELS 3 Zrotation Xrotation Yrotation
            End Site
            {
              OFFSET 1 0 0
            }
          }
          JOINT rightEye
          {
            OFFSET -3.6576 8.04674 8.04672
            CHANNELS 3 Zrotation Xrotation Yrotation
            End Site
            {
              OFFSET 1 0 0
            }
          }
        }
      }
      JOINT rCollar
      {
        OFFSET -2.68224 19.2634 -4.8768
        CHANNELS 3 Zrotation Xrotation Yrotation
        JOINT rShldr
        {
          OFFSET -8.77824 -1.95073 1.46304
          CHANNELS 3 Zrotation Xrotation Yrotation
          JOINT rForeArm
          {
            OFFSET -28.1742 -1.7115 0.48768
            CHANNELS 3 Zrotation Xrotation Yrotation
            JOINT rHand
            {
              OFFSET -22.5879 0.773209 7.07136
              CHANNELS 3 Zrotation Xrotation Yrotation
              JOINT rThumb1
              {
                OFFSET -1.2192 -0.487915 3.41376
                CHANNELS 3 Zrotation Xrotation Yrotation
                JOINT rThumb2
                {
                  OFFSET -3.37035 -0.52449 3.41376
                  CHANNELS 3 Zrotation Xrotation Yrotation
                  End Site
                  {
                    OFFSET -1.78271 -1.18214 1.43049
                  }
                }
              }
              JOINT rIndex1
              {
                OFFSET -7.75947 0.938293 5.60832
                CHANNELS 3 Zrotation Xrotation Yrotation
                JOINT rIndex2
                {
                  OFFSET -2.54057 -0.884171 1.56538
                  CHANNELS 3 Zrotation Xrotation Yrotation
                  End Site
                  {
                    OFFSET -1.62519 -0.234802 1.16502
                  }
                }
              }
              JOINT rMid1
              {
                OFFSET -8.24714 1.18213 3.41376
                CHANNELS 3 Zrotation Xrotation Yrotation
                JOINT rMid2
                {
                  OFFSET -3.10165 -0.590103 1.0647
                  CHANNELS 3 Zrotation Xrotation Yrotation
                  End Site
                  {
                    OFFSET -2.48547 -0.328903 0.83742
                  }
                }
              }
              JOINT rRing1
              {
                OFFSET -8.82822 0.546677 1.51678
                CHANNELS 3 Zrotation Xrotation Yrotation
                JOINT rRing2
                {
                  OFFSET -2.60934 -0.819778 -0.0198488
                  CHANNELS 3 Zrotation Xrotation Yrotation
                  End Site
                  {
                    OFFSET -2.33842 -0.294052 0.168128
                  }
                }
              }
              JOINT rPinky1
              {
                OFFSET -8.27202 -0.0477905 -0.4584
                CHANNELS 3 Zrotation Xrotation Yrotation
                JOINT rPinky2
                {
                  OFFSET -1.82734 -0.647385 -0.700984
                  CHANNELS 3 Zrotation Xrotation Yrotation
                  End Site
                  {
                    OFFSET -1.69225 -0.51767 -0.607171
                  }
                }
              }
            }
          }
        }
      }
      JOINT lCollar
      {
        OFFSET 2.68224 19.2634 -4.8768
        CHANNELS 3 Zrotation Xrotation Yrotation
        JOINT lShldr
        {
          OFFSET 8.77824 -1.95073 1.46304
          CHANNELS 3 Zrotation Xrotation Yrotation
          JOINT lForeArm
          {
            OFFSET 28.1742 -1.7115 0.48768
            CHANNELS 3 Zrotation Xrotation Yrotation
            JOINT lHand
            {
              OFFSET 22.5879 0.773209 7.07136
              CHANNELS 3 Zrotation Xrotation Yrotation
              JOINT lThumb1
              {
                OFFSET 1.2192 -0.487915 3.41376
                CHANNELS 3 Zrotation Xrotation Yrotation
                JOINT lThumb2
                {
                  OFFSET 3.37035 -0.52449 3.41376
                  CHANNELS 3 Zrotation Xrotation Yrotation
                  End Site
                  {
                    OFFSET 1.78271 -1.18214 1.43049
                  }
                }
              }
              JOINT lIndex1
              {
                OFFSET 7.75947 0.938293 5.60832
                CHANNELS 3 Zrotation Xrotation Yrotation
                JOINT lIndex2
                {
                  OFFSET 2.54057 -0.884171 1.56538
                  CHANNELS 3 Zrotation Xrotation Yrotation
                  End Site
                  {
                    OFFSET 1.62519 -0.234802 1.16502
                  }
                }
              }
              JOINT lMid1
              {
                OFFSET 8.24714 1.18213 3.41376
                CHANNELS 3 Zrotation Xrotation Yrotation
                JOINT lMid2
                {
                  OFFSET 3.10165 -0.590103 1.0647
                  CHANNELS 3 Zrotation Xrotation Yrotation
                  End Site
                  {
                    OFFSET 2.48547 -0.328903 0.83742
                  }
                }
              }
              JOINT lRing1
              {
                OFFSET 8.82822 0.546677 1.51678
                CHANNELS 3 Zrotation Xrotation Yrotation
                JOINT lRing2
                {
                  OFFSET 2.60934 -0.819778 -0.0198488
                  CHANNELS 3 Zrotation Xrotation Yrotation
                  End Site
                  {
                    OFFSET 2.33842 -0.294052 0.168128
                  }
                }
              }
              JOINT lPinky1
              {
                OFFSET 8.27202 -0.0477905 -0.4584
                CHANNELS 3 Zrotation Xrotation Yrotation
                JOINT lPinky2
                {
                  OFFSET 1.82734 -0.647385 -0.700984
                  CHANNELS 3 Zrotation Xrotation Yrotation
                  End Site
                  {
                    OFFSET 1.69225 -0.51767 -0.607171
                  }
                }
              }
            }
          }
        }
      }
    }
  }
  JOINT rButtock
  {
    OFFSET -8.77824 4.35084 1.2192
    CHANNELS 3 Zrotation Xrotation Yrotation
    JOINT rThigh
    {
      OFFSET 0 -1.70687 -2.19456
      CHANNELS 3 Zrotation Xrotation Yrotation
      JOINT rShin
      {
        OFFSET 0 -36.8199 0.73152
        CHANNELS 3 Zrotation Xrotation Yrotation
        JOINT rFoot
        {
          OFFSET 0.73152 -45.1104 -5.12064
          CHANNELS 3 Zrotation Xrotation Yrotation
          End Site
          {
            OFFSET -1.1221 -3.69964 12.103
          }
        }
      }
    }
  }
  JOINT lButtock
  {
    OFFSET 8.77824 4.35084 1.2192
    CHANNELS 3 Zrotation Xrotation Yrotation
    JOINT lThigh
    {
      OFFSET 0 -1.70687 -2.19456
      CHANNELS 3 Zrotation Xrotation Yrotation
      JOINT lShin
      {
        OFFSET 0 -36.8199 0.73152
        CHANNELS 3 Zrotation Xrotation Yrotation
        JOINT lFoot
        {
          OFFSET -0.73152 -45.1104 -5.12064
          CHANNELS 3 Zrotation Xrotation Yrotation
          End Site
          {
            OFFSET 1.1221 -3.69964 12.103
          }
        }
      }
    }
  }
}
MOTION
Frames:	4
Frame Time:	0.00833333
2.14655 79.2469 -0.270617 0.3874 -3.7336 -3.7483 -5.4368 16.7557 -0.540258 0.176092 -3.7968 -0.48859 -10.0827 6.17623 -6.09632 16.4546 -12.5773 -8.51896 -0.0 0.0 0.0 -0.0 0.0 0.0 6.19073e-15 8.39485e-14 -4.82429e-14 40.4152 37.2565 44.9485 -19.9238 -53.3905 114.4 -0.317038 15.8255 2.28299 -4.77526e-11 -1.03449e-10 -7.65857e-10 -8.71669e-11 -1.81121e-10 -1.32634e-09 -4.77454e-11 -1.03456e-10 -7.6587e-10 7.73091 5.47488 0.417314 -4.77529e-11 -1.03452e-10 -7.65855e-10 2.90554 0.965183 0.102902 -4.77521e-11 -1.03455e-10 -7.6586e-10 10.2786 0.731801 0.0259123 -4.7756e-11 -1.03453e-10 -7.65854e-10 2.22167 -0.733487 -0.20892 6.22284e-15 8.39505e-14 -4.84165e-14 -50.2322 45.2449 -21.0473 27.0042 -44.0044 -91.4529 0.0356139 5.42866 -0.764928 1.42328e-10 -4.99276e-10 9.22212e-11 2.47326e-10 -8.65027e-10 1.60338e-10 1.42317e-10 -4.99256e-10 9.22475e-11 -7.73091 5.47488 -0.417314 1.42332e-10 -4.9927e-10 9.22108e-11 -2.90554 0.965183 -0.102902 1.42322e-10 -4.99268e-10 9.22134e-11 -10.2786 0.731801 -0.0259123 1.4233e-10 -4.99266e-10 9.22069e-11 -2.22167 -0.733487 0.20892 -2.03217e-16 0.0 -3.88251e-19 -1.74477 -16.0594 14.8061 -0.272631 35.974 0.708278 -3.8175 -10.636 -12.6797 2.03217e-16 0.0 3.88251e-19 -0.979847 -16.0657 -8.18283 0.18784 36.9457 -0.762626 2.58324 -12.7041 8.80446
2.14538 79.2398 -0.361937 0.4697 -3.9816 -3.5988 -5.59887 17.0118 -0.747841 0.262216 -3.77844 -0.552081 -9.9924 6.00366 -5.94849 16.4355 -12.6351 -8.21039 -0.0 0.0 0.0 -0.0 0.0 0.0 -5.88252e-15 6.53015e-14 -2.34038e-14 40.1925 35.2141 45.8121 -19.9553 -53.357 114.324 -0.339794 16.3573 2.36413 2.55791e-10 1.26801e-10 -4.07246e-10 4.41427e-10 2.16686e-10 -7.09793e-10 2.55798e-10 1.26795e-10 -4.07256e-10 7.73091 5.47488 0.417314 2.5579e-10 1.26796e-10 -4.07243e-10 2.90554 0.965183 0.102902 2.55795e-10 1.26795e-10 -4.07249e-10 10.2786 0.731801 0.0259123 2.55787e-10 1.26796e-10 -4.07243e-10 2.22167 -0.733487 -0.20892 -5.90828e-15 6.53e-14 -2.36305e-14 -51.0649 47.2828 -19.8209 26.9019 -44.271 -91.9868 0.02448 4.28119 -0.602257 4.03593e-11 -8.60154e-10 -2.75487e-10 6.9495e-11 -1.48665e-09 -4.75736e-10 4.03526e-11 -8.60141e-10 -2.75471e-10 -7.73091 5.47488 -0.417314 4.03627e-11 -8.6015e-10 -2.75496e-10 -2.90554 0.965183 -0.102902 4.03551e-11 -8.60148e-10 -2.75496e-10 -10.2786 0.731801 -0.0259123 4.0362e-11 -8.60146e-10 -2.75502e-10 -2.22167 -0.733487 0.20892 -2.03217e-16 0.0 -3.88251e-19 -1.7821 -16.3505 14.9818 -0.273799 36.0319 0.707776 -3.78787 -10.608 -12.5958 2.03217e-16 0.0 3.88251e-19 -1.08074 -16.2522 -8.14928 0.1869 36.9446 -0.766786 2.62755 -12.6664 8.98838
2.1624 79.2313 -0.457554 0.5917 -4.1333 -3.4023 -5.76931 17.2624 -0.937961 0.350756 -3.7542 -0.610838 -9.92302 5.84858 -5.82132 16.4592 -12.7219 -7.93308 -0.0 0.0 0.0 -0.0 0.0 0.0 -1.54281e-14 4.38217e-14 2.46501e-15 40.1239 33.3267 46.4826 -20.1409 -53.2179 113.872 -0.368019 16.9907 2.46134 5.4751e-10 3.80198e-10 -9.91549e-12 9.49826e-10 6.54859e-10 -2.59627e-11 5.47516e-10 3.80193e-10 -9.92084e-12 7.73091 5.47488 0.417314 5.47508e-10 3.80191e-10 -9.9102e-12 2.90554 0.965183 0.102902 5.47518e-10 3.80191e-10 -9.917e-12 10.2786 0.731801 0.0259123 5.47507e-10 3.80192e-10 -9.91278e-12 2.22167 -0.733487 -0.20892 -1.55165e-14 4.38168e-14 2.18663e-15 -51.8146 49.2756 -18.7971 26.7599 -44.6234 -92.7009 0.0135121 2.82248 -0.396541 -8.65862e-11 -1.10329e-09 -5.84104e-10 -1.51552e-10 -1.90479e-09 -1.00954e-09 -8.65893e-11 -1.10329e-09 -5.84098e-10 -7.73091 5.47488 -0.417314 -8.65838e-11 -1.10329e-09 -5.84112e-10 -2.90554 0.965183 -0.102902 -8.65891e-11 -1.10329e-09 -5.84114e-10 -10.2786 0.731801 -0.0259123 -8.65831e-11 -1.10329e-09 -5.8412e-10 -2.22167 -0.733487 0.20892 -2.03217e-16 0.0 -3.88251e-19 -1.82378 -16.6236 15.144 -0.274708 36.0726 0.706883 -3.76328 -10.5783 -12.5311 2.03217e-16 0.0 3.88251e-19 -1.18616 -16.441 -8.13644 0.1859 36.934 -0.770273 2.66713 -12.6158 9.16303
2.18167 79.2426 -0.551281 0.6973 -4.2136 -3.2266 -5.89756 17.5073 -1.05875 0.396575 -3.75651 -0.649351 -9.82454 5.76158 -5.73808 16.4956 -12.8138 -7.75608 -0.0 0.0 0.0 -0.0 0.0 0.0 -1.40548e-14 3.65793e-14 1.6847e-14 40.2283 31.7389 46.8737 -20.4655 -52.9811 113.072 -0.399324 17.6786 2.5674 6.72105e-10 5.44498e-10 3.06904e-10 1.1683e-09 9.40092e-10 5.20981e-10 6.72111e-10 5.44495e-10 3.06901e-10 7.73091 5.47488 0.417314 6.72103e-10 5.44491e-10 3.06911e-10 2.90554 0.965183 0.102902 6.72115e-10 5.44492e-10 3.06904e-10 10.2786 0.731801 0.0259123 6.72102e-10 5.44493e-10 3.06908e-10 2.22167 -0.733487 -0.20892 -1.41735e-14 3.65725e-14 1.65488e-14 -52.2845 51.153 -18.217 26.6064 -44.9937 -93.4479 0.00163037 1.15287 -0.162047 -1.65639e-10 -1.09117e-09 -6.96208e-10 -2.89356e-10 -1.88217e-09 -1.2036e-09 -1.6564e-10 -1.09117e-09 -6.96208e-10 -7.73091 5.47488 -0.417314 -1.65637e-10 -1.09117e-09 -6.96214e-10 -2.90554 0.965183 -0.102902 -1.65641e-10 -1.09117e-09 -6.96217e-10 -10.2786 0.731801 -0.0259123 -1.65635e-10 -1.09117e-09 -6.96223e-10 -2.22167 -0.733487 0.20892 -2.03217e-16 0.0 -3.88251e-19 -1.83037 -16.8632 15.2698 -0.275052 36.0744 0.704855 -3.74214 -10.5213 -12.4995 2.03217e-16 0.0 3.88251e-19 -1.24912 -16.6405 -8.15572 0.185244 36.9223 -0.773 2.69642 -12.5584 9.30301
